<svg width="24" height="24" viewBox="0 0 24 24" fill="none" xmlns="http://www.w3.org/2000/svg">
<path d="M3.63708 3.43383L12.3771 12.0048L3.70208 20.6548C3.56015 20.47 3.44998 20.2628 3.37608 20.0418C3.33786 19.7916 3.33786 19.5371 3.37608 19.2868V4.56683C3.35008 4.17183 3.44108 3.77683 3.63608 3.43383M16.1421 8.26683L13.2891 11.0928L4.65308 2.59983C4.93308 2.50283 5.23308 2.47583 5.52608 2.52183C5.98608 2.64783 6.42508 2.84183 6.82808 3.09483L14.6441 7.41983C15.1521 7.69283 15.6471 7.97983 16.1421 8.26683ZM13.2901 12.9298L16.1291 15.7178L14.0711 16.8638L7.79208 20.3538C7.27208 20.6408 6.75008 20.9148 6.24208 21.2278C6.02471 21.3632 5.78096 21.4506 5.52712 21.4842C5.27328 21.5178 5.01519 21.4969 4.77008 21.4228L13.2901 12.9298ZM20.6501 12.0048C20.6574 12.3545 20.569 12.6995 20.3945 13.0027C20.2201 13.3058 19.9661 13.5555 19.6601 13.7248L17.3141 15.0268L14.2271 12.0048L17.3271 8.93083C18.1221 9.37383 18.9041 9.81683 19.6851 10.2338C19.9966 10.4079 20.2524 10.6666 20.423 10.98C20.5936 11.2934 20.673 11.6487 20.6501 12.0048Z" fill="#1A3360"/>
</svg>
